<svg width="25" height="25" viewBox="0 0 25 25" fill="none" xmlns="http://www.w3.org/2000/svg">
<g clip-path="url(#clip0_693_3417)">
<path d="M18.7457 18.086C17.0363 19.389 14.9548 20.1109 12.8057 20.146C5.80566 20.146 1.80566 12.146 1.80566 12.146C3.04955 9.82792 4.7748 7.80263 6.86566 6.20602M10.7057 4.38602C11.394 4.2249 12.0987 4.14436 12.8057 4.14602C19.8057 4.14602 23.8057 12.146 23.8057 12.146C23.1986 13.2816 22.4747 14.3508 21.6457 15.336M14.9257 14.266C14.651 14.5608 14.3198 14.7972 13.9518 14.9611C13.5838 15.1251 13.1866 15.2133 12.7838 15.2204C12.3809 15.2275 11.9808 15.1534 11.6073 15.0025C11.2337 14.8516 10.8944 14.627 10.6095 14.3422C10.3246 14.0573 10.1001 13.718 9.94917 13.3444C9.79829 12.9709 9.72419 12.5707 9.7313 12.1679C9.7384 11.7651 9.82657 11.3679 9.99054 10.9999C10.1545 10.6319 10.3909 10.3007 10.6857 10.026" stroke="black" stroke-width="2" stroke-linecap="round" stroke-linejoin="round"/>
<path d="M1.80566 1.146L23.8057 23.146" stroke="black" stroke-width="2" stroke-linecap="round" stroke-linejoin="round"/>
</g>
<defs>
<clipPath id="clip0_693_3417">
<rect width="24" height="24" fill="white" transform="translate(0.805664 0.145996)"/>
</clipPath>
</defs>
</svg>
